PathFileType	4	(X/Y/Z)	..\data\2014034\dynamic\2014034_C4_04.trc
DataRate	CameraRate	NumFrames	NumMarkers	Units	OrigDataRate	OrigDataStartFrame	OrigNumFrames
100.000000	100.000000	4	52	mm	100.000000	157	180
Frame#	Time	L_IAS			L_IPS			R_IPS			R_IAS			L_FTC			L_FLE			L_FME			L_FAX			L_TTC			L_FAL			L_TAM			L_FCC			L_FM1			L_FM2			L_FM5			R_FTC			R_FLE			R_FME			R_FAX			R_TTC			R_FAL			R_TAM			R_FCC			R_FM1			R_FM2			R_FM5			CV7			TV10			SXS			SJN			L_SIA			L_SRS			L_SAA			L_SAE			L_HLE			L_HME			L_UOA			L_RSP			L_UHE			L_HM2			L_HM5			R_SIA			R_SRS			R_SAA			R_SAE			R_HLE			R_HME			R_UOA			R_RSP			R_UHE			R_HM2			R_HM5			
		X1	Y1	Z1	X2	Y2	Z2	X3	Y3	Z3	X4	Y4	Z4	X5	Y5	Z5	X6	Y6	Z6	X7	Y7	Z7	X8	Y8	Z8	X9	Y9	Z9	X10	Y10	Z10	X11	Y11	Z11	X12	Y12	Z12	X13	Y13	Z13	X14	Y14	Z14	X15	Y15	Z15	X16	Y16	Z16	X17	Y17	Z17	X18	Y18	Z18	X19	Y19	Z19	X20	Y20	Z20	X21	Y21	Z21	X22	Y22	Z22	X23	Y23	Z23	X24	Y24	Z24	X25	Y25	Z25	X26	Y26	Z26	X27	Y27	Z27	X28	Y28	Z28	X29	Y29	Z29	X30	Y30	Z30	X31	Y31	Z31	X32	Y32	Z32	X33	Y33	Z33	X34	Y34	Z34	X35	Y35	Z35	X36	Y36	Z36	X37	Y37	Z37	X38	Y38	Z38	X39	Y39	Z39	X40	Y40	Z40	X41	Y41	Z41	X42	Y42	Z42	X43	Y43	Z43	X44	Y44	Z44	X45	Y45	Z45	X46	Y46	Z46	X47	Y47	Z47	X48	Y48	Z48	X49	Y49	Z49	X50	Y50	Z50	X51	Y51	Z51	X52	Y52	Z52	

158	1.57	1925.405883789063	1029.540283203125	-448.7300109863282	1720.786743164063	1062.885498046875	-342.1856994628907	1727.054443359375	1056.746215820313	-247.3353881835938	1945.106689453125	1043.679443359375	-171.205078125	1831.527709960938	971.1525878906252	-488.0406188964845	1803.706909179688	520.4491577148439	-432.8179626464845	1821.780029296875	513.8905639648439	-286.6261291503907	1776.00537109375	463.391326904297	-430.9725952148439	1859.443725585938	448.8355407714845	-384.861541748047	1713.12158203125	74.58444213867189	-395.7484130859376	1737.239990234375	89.02607727050783	-300.6583557128907	1660.726928710938	27.11097526550294	-346.4669799804688	1871.643310546875	23.74402046203614	-305.1218872070313	1884.374877929688	35.34421920776368	-367.7071838378907	1844.895263671875	15.09629249572754	-421.2735900878907	1863.026123046875	961.7641601562502	-113.7869949340821	2022.402709960938	550.5792236328126	-139.1380462646485	2047.853759765625	534.7002563476564	-278.2080383300782	2009.853271484375	493.2638244628907	-135.4864654541016	2083.59521484375	474.5654907226564	-187.0290679931641	1947.831298828125	93.70024871826173	-140.2824401855469	1984.751708984375	103.288818359375	-232.4179077148438	1904.070068359375	41.73852539062501	-196.5562896728516	2118.9697265625	34.66384887695313	-209.6750640869141	2115.23583984375	53.97303390502931	-151.6728057861328	2073.472900390625	31.98505783081055	-110.2739410400391	1824.95947265625	1579.530151367188	-335.7183227539063	1716.134521484375	1319.680419921875	-324.0643920898438	1993.072021484375	1266.413330078125	-321.4478759765626	1939.670654296875	1472.542236328125	-318.4726867675782	1720.422485351563	1350.705688476563	-444.1942749023439	1777.870971679688	1504.362548828125	-450.8304138183595	1843.486206054688	1496.135498046875	-523.7689819335939	1913.754516601563	1476.712646484375	-533.9001464843751	1915.766967773438	1141.677001953125	-602.9144897460939	1867.631591796875	1123.912353515625	-515.4387817382814	1874.283325195313	1108.47412109375	-575.0169677734376	2076.302001953125	908.956481933594	-561.6447753906251	2019.423095703125	896.8237304687502	-624.4898681640626	2137.72900390625	820.664978027344	-576.6489257812501	2031.988525390625	801.0887451171877	-620.1040039062501	1699.565795898438	1357.251831054688	-234.9248657226563	1760.938232421875	1509.90478515625	-232.7442016601563	1805.743530273438	1511.97998046875	-152.7821807861328	1857.5322265625	1501.996337890625	-120.4269714355469	1728.274658203125	1183.701416015625	-71.62548065185548	1710.548461914063	1174.082275390625	-164.0772247314453	1689.411010742188	1168.539672851563	-108.3332977294922	1782.762939453125	896.1946411132815	-69.0685501098633	1709.093017578125	908.9312133789065	-28.54846572875977	1793.473266601563	801.3083496093752	-45.24108505249024	1681.03271484375	815.6781005859377	-31.7371006011963	
159	1.58	1936.537841796875	1028.127563476563	-449.1531372070314	1732.274047851563	1061.649291992188	-341.6969909667969	1738.966918945313	1055.06884765625	-247.1106414794922	1957.326416015625	1041.621337890625	-171.2476806640625	1841.998901367188	970.4417114257815	-488.260955810547	1807.3095703125	520.3461303710939	-432.745574951172	1825.129150390625	513.6853637695314	-286.5581665039063	1778.975219726563	463.5377197265626	-430.8086547851564	1862.306274414063	447.9158935546876	-384.8249816894532	1713.397827148438	74.83579254150392	-394.8936767578126	1737.971801757813	89.45252227783205	-300.0701599121094	1660.927368164063	27.72212409973145	-345.5225830078126	1872.095581054688	23.52813339233399	-305.1449279785157	1884.668579101563	35.16491699218751	-367.6625366210938	1844.865234375	15.04934120178223	-421.202117919922	1874.652954101563	959.8117675781252	-114.5608901977539	2034.603759765625	548.1212158203126	-141.6401062011719	2059.06787109375	532.5011596679689	-280.9812316894532	2024.18603515625	490.4125976562501	-138.0228271484375	2098.539306640625	474.7982177734376	-189.9493560791016	1986.00830078125	88.01808929443361	-142.0428619384766	2022.321655273438	99.64260101318362	-234.3243103027344	1945.2421875	33.71338272094727	-198.2425994873047	2160.197509765625	38.07544708251954	-212.0206604003907	2155.405517578125	57.01129150390626	-153.933334350586	2114.76806640625	32.77961349487305	-112.4529266357422	1835.547729492188	1578.188232421875	-335.4579162597657	1727.440551757813	1318.234252929688	-324.0059204101563	2004.478515625	1265.011840820313	-321.0236511230469	1950.892700195313	1471.146362304688	-317.8470764160157	1732.317749023438	1349.542358398438	-444.3912963867189	1789.4697265625	1503.195068359375	-450.7541809082032	1855.402954101563	1494.942260742188	-523.3857421875001	1925.723388671875	1475.745361328125	-533.1983032226564	1932.203247070313	1141.7958984375	-604.0594482421876	1884.905517578125	1122.719360351563	-516.3181152343751	1891.18115234375	1107.475708007813	-575.9471435546876	2098.499755859375	912.812927246094	-564.4206542968751	2041.296752929688	899.3218383789065	-626.6793212890626	2162.138916015625	826.259216308594	-580.0911254882814	2056.0400390625	804.0281372070315	-622.4165649414064	1710.581665039063	1355.605712890625	-235.3964233398438	1771.935791015625	1508.351806640625	-232.7750854492188	1816.604858398438	1510.339721679688	-152.374252319336	1868.721313476563	1500.383911132813	-119.8442993164063	1737.022094726563	1182.7646484375	-72.6967239379883	1719.796020507813	1173.532470703125	-165.3315582275391	1698.219970703125	1167.985595703125	-109.5363082885742	1788.191162109375	894.7227783203127	-70.52568817138673	1714.701782226563	908.2584228515627	-29.76754379272462	1797.131591796875	799.3041992187502	-47.81632995605469	1684.817260742188	815.570983886719	-34.13622283935548	
160	1.59	1947.776123046875	1026.572021484375	-449.4420166015626	1743.845703125	1060.202514648438	-341.0922546386719	1751.000610351563	1053.173217773438	-246.7532348632813	1969.643188476563	1039.2705078125	-171.2287750244141	1852.5224609375	969.5606689453127	-488.4255676269532	1811.384887695313	520.1253662109376	-432.6468200683595	1828.914306640625	513.3959350585939	-286.4623718261719	1782.391967773438	463.5773925781251	-430.6177673339845	1865.579345703125	446.877166748047	-384.7302551269532	1713.730834960938	75.10440063476564	-393.9525756835939	1738.780395507813	89.87100982666017	-299.4007568359376	1661.15283203125	28.39673614501954	-344.5010986328126	1872.558959960938	23.26223945617676	-305.1296997070313	1884.970581054688	34.97148895263673	-367.6029663085938	1844.809204101563	15.01061820983887	-421.1080017089845	1886.369018554688	957.5385742187502	-115.3276901245117	2046.365844726563	545.2509765625001	-143.9560241699219	2069.858154296875	529.9107055664064	-283.6358947753907	2038.1396484375	487.3369750976564	-140.4345397949219	2112.966064453125	474.8374938964845	-192.7686462402344	2023.845458984375	83.57730102539064	-143.8689270019532	2059.36669921875	97.2492370605469	-236.2957763671876	1986.055541992188	27.18964958190919	-200.0444335937501	2200.495361328125	42.67476654052735	-214.7842712402344	2194.834716796875	61.10698699951173	-156.5702514648438	2155.4365234375	34.65714645385743	-114.9925308227539	1846.084838867188	1576.636352539063	-335.1266784667969	1738.73828125	1316.551513671875	-323.8218078613282	2015.942138671875	1263.422607421875	-320.5260314941407	1962.123901367188	1469.530883789063	-317.1422729492188	1744.205078125	1348.11083984375	-444.4341430664064	1801.065551757813	1501.807006835938	-450.5990295410157	1867.3154296875	1493.5322265625	-522.9314575195314	1937.681518554688	1474.571166992188	-532.4381713867189	1948.52294921875	1141.7841796875	-605.1679077148439	1901.97900390625	1121.402587890625	-517.2288208007814	1907.924194335938	1106.3779296875	-576.8803100585939	2120.347412109375	916.6228637695315	-567.0038452148439	2062.95703125	901.7940673828127	-628.7599487304689	2186.172119140625	831.8610839843752	-583.3201293945314	2079.8310546875	806.9885253906252	-624.6327514648439	1721.65087890625	1353.717895507813	-235.7204742431641	1782.975952148438	1506.567749023438	-232.6981048583985	1827.54541015625	1508.449829101563	-151.8366241455078	1879.815307617188	1498.557495117188	-119.2341003417969	1745.927734375	1181.566528320313	-73.66715240478517	1729.1962890625	1172.6982421875	-166.4718475341797	1707.204467773438	1167.15283203125	-110.6321411132813	1793.99169921875	893.054626464844	-71.92675018310548	1720.687255859375	907.317077636719	-30.92039299011231	1801.2119140625	797.1719970703127	-50.36849212646486	1689.069702148438	815.2431640625002	-36.48216629028321	
161	1.6	1959.103393554688	1024.888793945313	-449.6069335937501	1755.503784179688	1058.557373046875	-340.3688659667969	1763.152221679688	1051.075317382813	-246.2530364990235	1982.067504882813	1036.686767578125	-171.1849060058594	1863.102416992188	968.509704589844	-488.5333862304689	1815.966186523438	519.7708740234376	-432.5188903808595	1833.209228515625	512.9956665039064	-286.3428039550782	1786.28564453125	463.4981384277345	-430.3953552246095	1869.296020507813	445.7185363769532	-384.5836181640626	1714.127197265625	75.40855407714845	-392.9480895996095	1739.65625	90.27220916748048	-298.6559753417969	1661.405639648438	29.14446067810059	-343.4204406738282	1873.014526367188	22.95889472961426	-305.0763854980469	1885.27099609375	34.77020263671876	-367.5290527343751	1844.727416992188	14.98819541931153	-420.9886169433595	1898.2265625	954.9748535156252	-116.0549392700196	2057.759521484375	542.0349121093751	-146.0819702148438	2080.282470703125	527.0130004882814	-286.1700439453126	2051.762939453125	484.085906982422	-142.7179260253907	2126.928466796875	474.7246398925782	-195.4990997314454	2061.099853515625	80.36104583740236	-145.7883453369141	2095.652099609375	96.08028411865237	-238.3499755859376	2026.234619140625	22.15458297729493	-202.0152740478516	2239.6201171875	48.41059494018556	-217.9778137207032	2233.3017578125	66.21500396728517	-159.6039581298828	2195.265380859375	37.58830642700196	-117.9191665649414	1856.609619140625	1574.88037109375	-334.7151489257813	1750.03271484375	1314.6396484375	-323.5103149414063	2027.468139648438	1261.66064453125	-319.9678039550782	1973.36865234375	1467.712890625	-316.3668212890626	1756.084594726563	1346.40234375	-444.3249511718751	1812.654052734375	1500.204467773438	-450.3636779785157	1879.218627929688	1491.916015625	-522.4108886718751	1949.624267578125	1473.194213867188	-531.6205444335939	1964.685424804688	1141.641479492188	-606.2412109375001	1918.836791992188	1119.961059570313	-518.1633911132814	1924.534545898438	1105.175415039063	-577.8079833984376	2141.8203125	920.365661621094	-569.3887939453126	2084.37744140625	904.2281494140627	-630.7286376953126	2209.794189453125	837.4415283203127	-586.3327026367189	2103.35400390625	809.953796386719	-626.7530517578126	1732.78271484375	1351.591552734375	-235.8979187011719	1794.067016601563	1504.55859375	-232.5084686279297	1838.568115234375	1506.32470703125	-151.1805419921875	1890.839233398438	1496.521240234375	-118.5903472900391	1754.994384765625	1180.113403320313	-74.53785705566408	1738.752563476563	1171.584838867188	-167.4886322021485	1716.37548828125	1166.05078125	-111.6356430053711	1800.1640625	891.1864013671877	-73.27009582519533	1727.045043945313	906.1083984375002	-32.02438354492188	1805.703002929688	794.8885498046877	-52.87488555908205	1693.800170898438	814.6848144531252	-38.76618957519532	
